<?xml version="1.0" standalone="no"?>
<!DOCTYPE svg PUBLIC "-//W3C//DTD SVG 20010904//EN"
 "http://www.w3.org/TR/2001/REC-SVG-20010904/DTD/svg10.dtd">
<svg version="1.0" xmlns="http://www.w3.org/2000/svg"
 width="266.000000pt" height="268.000000pt" viewBox="0 0 266.000000 268.000000"
 preserveAspectRatio="xMidYMid meet">
<metadata>
Created by potrace 1.15, written by Peter Selinger 2001-2017
</metadata>
<g transform="translate(0.000000,268.000000) scale(0.100000,-0.100000)"
fill="#000000" stroke="none">
<path d="M2245 2671 c-318 -53 -755 -295 -1138 -633 -89 -78 -97 -80 -217 -48
-91 24 -139 25 -188 5 -25 -11 -146 -124 -370 -348 -297 -297 -332 -335 -332
-364 0 -21 6 -33 18 -37 9 -3 118 -22 242 -41 265 -43 329 -43 387 -2 l38 27
267 -267 c255 -255 267 -268 252 -288 -29 -39 -44 -85 -44 -134 0 -46 63 -472
76 -513 4 -12 16 -18 37 -18 29 0 67 35 364 333 224 223 337 344 348 369 20
49 19 97 -5 188 -25 96 -25 122 1 146 40 36 167 190 252 307 206 281 364 601
411 831 21 97 20 237 0 305 -20 67 -78 132 -144 160 -57 25 -176 35 -255 22z
m-126 -421 c59 -30 94 -64 126 -122 94 -172 -37 -388 -235 -389 -149 -1 -272
121 -272 270 0 63 12 100 48 153 72 104 224 144 333 88z"/>
<path d="M581 955 c-167 -183 -383 -682 -307 -711 8 -3 43 9 77 27 35 17 146
65 246 105 100 40 208 89 240 110 78 50 173 142 173 168 0 29 -327 356 -357
356 -13 0 -40 -21 -72 -55z"/>
</g>
</svg>
